<?xml version="1.0" encoding="utf-8"?>
<!-- Generator: Adobe Illustrator 26.1.0, SVG Export Plug-In . SVG Version: 6.00 Build 0)  -->
<svg version="1.1" id="Calque_1" xmlns="http://www.w3.org/2000/svg" xmlns:xlink="http://www.w3.org/1999/xlink" x="0px" y="0px"
	 viewBox="0 0 94 105" style="enable-background:new 0 0 94 105;" xml:space="preserve">
<style type="text/css">
	.st0{fill-rule:evenodd;clip-rule:evenodd;fill:#1D1D1B;}
</style>
<g>
	<path class="st0" d="M32.8,0.3H8H1.8v90.9h1.1c1.7,0,3.4-0.3,5-0.7c3.9-1,7.4-3.2,10-6.2c3.6,4.2,8.8,6.8,14.8,6.8h0.1
		c5.9,0,11.2-2.6,14.8-6.7c3.6,4.1,8.9,6.7,14.9,6.7c5.9,0,11.2-2.7,14.8-6.8c3.6,4.1,9,6.8,14.9,6.8h1V0.3H32.8z M12.9,71.2
		c0,3.6-2,6.8-4.9,8.6c-1.5,0.9-3.2,1.3-4.9,1.3V1.5H8h4.9V71.2z M32.8,81.1c-5.5,0-9.9-4.4-9.9-9.9V49.7l9.9,8.5l6.8,5.7
		c1.9,1.8,3.1,4.4,3.1,7.3C42.7,76.6,38.2,81.1,32.8,81.1z M62.5,81.1c-5.5,0-10-4.4-10-9.9c0,0,1-8.3-6.8-14.9
		c-2.5-2.1-8-6.8-13-11.2c-5.2-4.6-9.9-8.7-9.9-8.7V24l9.9,8.5l36.5,31.4c1.9,1.8,3.1,4.4,3.1,7.3C72.4,76.6,68,81.1,62.5,81.1z
		 M92.1,81.1c-5.5,0-9.8-4.4-9.8-9.9c0,0,0.5-8.7-6.2-14.3c-4.3-3.7-29.3-25.1-43.4-37.2c-5.9-5-9.9-8.5-9.9-8.5V1.5h9.9h59.4V81.1z
		"/>
	<g>
		<path class="st0" d="M94,99.1c-0.2-2.3-2.1-2.7-3.7-2.7c-2.6,0-3.3,1.5-3.3,2.7c0,3,5.1,2,5.1,3.4c0,0.3-0.3,0.9-1.4,0.9
			c-1.4,0-1.8-0.5-1.8-1.2h-2.3c0.1,2.2,2.1,2.9,4,2.9c1.3,0,3.6-0.4,3.6-2.9c0-2.9-5.2-2.1-5.2-3.3c0-0.4,0.2-0.9,1.4-0.9
			c1.1,0,1.4,0.6,1.5,1.1H94z"/>
		<path class="st0" d="M3.9,94.4H1.6v2.2H0.5v1.6h1.1v4.9c0,1,0.3,1.7,2.3,1.7h0.3c0.3,0,0.7,0,1,0v-1.6c-0.2,0-0.3,0-0.4,0
			c-0.9,0-0.9-0.2-0.9-0.6v-4.4h1.3v-1.6H3.9V94.4z"/>
		<path class="st0" d="M6.2,104.7h2.3v-4.2c0-0.9,0.3-1.9,2-1.9c0.2,0,0.4,0,0.6,0v-2.2c-0.2,0-0.3,0-0.4,0c-1.3,0-1.8,0.8-2.3,1.6
			l0,0v-1.4H6.2V104.7z"/>
		<path class="st0" d="M15.8,96.4c-2.3,0-4.3,1.3-4.3,4.2c0,2.9,2.1,4.3,4.3,4.3c2.2,0,4.2-1.4,4.2-4.3C20.1,97.7,18,96.4,15.8,96.4
			z M15.8,103.2c-1.7,0-2.1-1.5-2.1-2.5c0-1,0.3-2.5,2.1-2.5c1.6,0,2,1.5,2,2.5C17.8,101.7,17.5,103.2,15.8,103.2z"/>
		<path class="st0" d="M21,96.6v8.2h2.2v-8.2H21L21,96.6z M23.2,93.6H21v2h2.2V93.6z"/>
		<path class="st0" d="M31.4,99.1c-0.2-2.3-2.1-2.7-3.7-2.7c-2.6,0-3.4,1.5-3.4,2.7c0,3,5.2,2,5.2,3.4c0,0.3-0.3,0.9-1.4,0.9
			c-1.4,0-1.8-0.5-1.8-1.2H24c0,2.2,2.1,2.9,4,2.9c1.3,0,3.6-0.4,3.6-2.9c0-2.9-5.2-2.1-5.2-3.3c0-0.4,0.2-0.9,1.3-0.9
			c1.2,0,1.4,0.6,1.5,1.1H31.4z"/>
		<rect x="33.6" y="99.5" class="st0" width="6.7" height="2"/>
		<path class="st0" d="M42.5,104.7h2.3v-4.2c0-0.9,0.3-1.9,2-1.9c0.2,0,0.3,0,0.5,0v-2.2c-0.1,0-0.3,0-0.3,0c-1.3,0-1.8,0.8-2.3,1.6
			l0,0v-1.4h-2.2V104.7z"/>
		<path class="st0" d="M48.3,96.6v8.2h2.2v-8.2H48.3L48.3,96.6z M50.4,93.6h-2.2v2h2.2V93.6z"/>
		<polygon class="st0" points="59.9,96.6 57.6,96.6 55.7,102.6 55.7,102.6 54,96.6 51.6,96.6 54.5,104.7 56.9,104.7 		"/>
		<path class="st0" d="M60.9,96.6v8.2h2.3v-8.2H60.9L60.9,96.6z M63.2,93.6h-2.3v2h2.3V93.6z"/>
		<path class="st0" d="M72,101.3v-0.4c0-3.7-2.3-4.4-3.9-4.4c0,0,0,0-0.1,0c-3.6,0-3.9,3.1-3.9,4.1c0,3.3,1.7,4.4,3.9,4.4
			c0.1,0.1,0.2,0.1,0.3,0.1c1.4,0,3-0.7,3.6-2.7h-2.3c-0.2,0.6-0.8,1-1.4,1c-0.1,0-0.2,0-0.3,0c-1.6-0.1-1.6-1.4-1.7-2H68H72z
			 M68,98.2C68.1,98.2,68.1,98.2,68,98.2c0.8,0,1.6,0.4,1.7,1.7H68h-1.6C66.5,98.8,67.1,98.2,68,98.2z"/>
		<path class="st0" d="M73,104.7h2.2v-4.2c0-0.9,0.3-1.9,2.1-1.9c0.2,0,0.4,0,0.6,0v-2.2c-0.2,0-0.3,0-0.4,0c-1.3,0-1.8,0.8-2.3,1.6
			h-0.1v-1.4H73V104.7z"/>
		<path class="st0" d="M86,101.3v-0.4c0-3.7-2.3-4.4-3.9-4.4c-3.6,0-4,3.1-4,4.1c0,3.3,1.7,4.4,4,4.4c0.1,0.1,0.1,0.1,0.2,0.1
			c1.4,0,3.1-0.7,3.6-2.7h-2.3c-0.2,0.6-0.8,1-1.4,1c-0.1,0-0.1,0-0.2,0c-1.6-0.1-1.7-1.4-1.7-2h1.7H86z M82.1,98.2
			c0.7,0,1.6,0.4,1.6,1.7h-1.6h-1.7C80.5,98.8,81,98.2,82.1,98.2z"/>
		<rect x="65.8" y="93.6" class="st0" width="4.4" height="2"/>
	</g>
</g>
</svg>
